<svg width="930" height="507" viewBox="0 0 930 507" fill="none" xmlns="http://www.w3.org/2000/svg">
<path opacity="0.2" d="M130.11 5.16V25.51H111.11C117.064 18.5233 123.397 11.74 130.11 5.16Z" fill="#54ADFF"/>
<path opacity="0.2" d="M164.981 0H139.471V25.51H164.981V0Z" fill="#54ADFF"/>
<path opacity="0.2" d="M199.84 0H174.33V25.51H199.84V0Z" fill="#54ADFF"/>
<path opacity="0.2" d="M234.71 0H209.2V25.51H234.71V0Z" fill="#54ADFF"/>
<path opacity="0.2" d="M269.571 0H244.061V25.51H269.571V0Z" fill="#54ADFF"/>
<path opacity="0.2" d="M304.44 0H278.93V25.51H304.44V0Z" fill="#54ADFF"/>
<path d="M339.311 0H313.801V25.51H339.311V0Z" fill="#54ADFF"/>
<path opacity="0.2" d="M374.17 0H348.66V25.51H374.17V0Z" fill="#54ADFF"/>
<path opacity="0.2" d="M409.04 0H383.53V25.51H409.04V0Z" fill="#54ADFF"/>
<path opacity="0.2" d="M443.901 0H418.391V25.51H443.901V0Z" fill="#54ADFF"/>
<path d="M478.77 0H453.26V25.51H478.77V0Z" fill="#54ADFF"/>
<path opacity="0.2" d="M513.641 0H488.131V25.51H513.641V0Z" fill="#54ADFF"/>
<path opacity="0.2" d="M548.5 0H522.99V25.51H548.5V0Z" fill="#54ADFF"/>
<path opacity="0.2" d="M583.37 0H557.86V25.51H583.37V0Z" fill="#54ADFF"/>
<path opacity="0.2" d="M618.24 0H592.73V25.51H618.24V0Z" fill="#54ADFF"/>
<path opacity="0.2" d="M653.1 0H627.59V25.51H653.1V0Z" fill="#54ADFF"/>
<path opacity="0.2" d="M687.97 0H662.46V25.51H687.97V0Z" fill="#54ADFF"/>
<path d="M722.83 0H697.32V25.51H722.83V0Z" fill="#54ADFF"/>
<path d="M757.7 0H732.19V25.51H757.7V0Z" fill="#54ADFF"/>
<path opacity="0.2" d="M792.571 0H767.061V25.51H792.571V0Z" fill="#54ADFF"/>
<path opacity="0.2" d="M827.43 0H801.92V25.51H827.43V0Z" fill="#54ADFF"/>
<path d="M862.3 0H836.79V25.51H862.3V0Z" fill="#54ADFF"/>
<path d="M897.16 0H871.65V25.51H897.16V0Z" fill="#54ADFF"/>
<path d="M95.2503 45.72V57.82H87.0703C89.6703 53.7 92.397 49.6667 95.2503 45.72Z" fill="#54ADFF"/>
<path opacity="0.2" d="M130.11 32.31H104.6V57.82H130.11V32.31Z" fill="#54ADFF"/>
<path d="M164.981 32.31H139.471V57.82H164.981V32.31Z" fill="#54ADFF"/>
<path opacity="0.2" d="M199.84 32.31H174.33V57.82H199.84V32.31Z" fill="#54ADFF"/>
<path opacity="0.7" d="M234.71 32.31H209.2V57.82H234.71V32.31Z" fill="#54ADFF"/>
<path opacity="0.2" d="M269.571 32.31H244.061V57.82H269.571V32.31Z" fill="#54ADFF"/>
<path opacity="0.4" d="M304.44 32.31H278.93V57.82H304.44V32.31Z" fill="#54ADFF"/>
<path d="M339.311 32.31H313.801V57.82H339.311V32.31Z" fill="#54ADFF"/>
<path opacity="0.4" d="M374.17 32.31H348.66V57.82H374.17V32.31Z" fill="#54ADFF"/>
<path opacity="0.2" d="M409.04 32.31H383.53V57.82H409.04V32.31Z" fill="#54ADFF"/>
<path opacity="0.4" d="M443.901 32.31H418.391V57.82H443.901V32.31Z" fill="#54ADFF"/>
<path d="M478.77 32.31H453.26V57.82H478.77V32.31Z" fill="#54ADFF"/>
<path opacity="0.4" d="M513.641 32.31H488.131V57.82H513.641V32.31Z" fill="#54ADFF"/>
<path opacity="0.4" d="M548.5 32.31H522.99V57.82H548.5V32.31Z" fill="#54ADFF"/>
<path opacity="0.2" d="M583.37 32.31H557.86V57.82H583.37V32.31Z" fill="#54ADFF"/>
<path opacity="0.4" d="M618.24 32.31H592.73V57.82H618.24V32.31Z" fill="#54ADFF"/>
<path opacity="0.4" d="M653.1 32.31H627.59V57.82H653.1V32.31Z" fill="#54ADFF"/>
<path opacity="0.2" d="M687.97 32.31H662.46V57.82H687.97V32.31Z" fill="#54ADFF"/>
<path opacity="0.2" d="M722.83 32.31H697.32V57.82H722.83V32.31Z" fill="#54ADFF"/>
<path opacity="0.4" d="M757.7 32.31H732.19V57.82H757.7V32.31Z" fill="#54ADFF"/>
<path opacity="0.2" d="M792.571 32.31H767.061V57.82H792.571V32.31Z" fill="#54ADFF"/>
<path d="M827.43 32.31H801.92V57.82H827.43V32.31Z" fill="#54ADFF"/>
<path d="M862.3 32.31H836.79V57.82H862.3V32.31Z" fill="#54ADFF"/>
<path d="M897.16 32.31H871.65V57.82H897.16V32.31Z" fill="#54ADFF"/>
<path opacity="0.2" d="M25.51 72.31V90.14H0V81.43C8.25418 77.7336 16.7832 74.6844 25.51 72.31V72.31Z" fill="#54ADFF"/>
<path opacity="0.2" d="M60.3801 66.55V90.14H34.8701V70.05L60.3801 66.55Z" fill="#54ADFF"/>
<path d="M95.2405 64.63H69.7305V90.14H95.2405V64.63Z" fill="#54ADFF"/>
<path opacity="0.7" d="M130.11 64.63H104.6V90.14H130.11V64.63Z" fill="#54ADFF"/>
<path d="M164.981 64.63H139.471V90.14H164.981V64.63Z" fill="#54ADFF"/>
<path opacity="0.7" d="M199.84 64.63H174.33V90.14H199.84V64.63Z" fill="#54ADFF"/>
<path opacity="0.7" d="M234.71 64.63H209.2V90.14H234.71V64.63Z" fill="#54ADFF"/>
<path opacity="0.2" d="M269.571 64.63H244.061V90.14H269.571V64.63Z" fill="#54ADFF"/>
<path opacity="0.4" d="M304.44 64.63H278.93V90.14H304.44V64.63Z" fill="#54ADFF"/>
<path opacity="0.4" d="M339.311 64.63H313.801V90.14H339.311V64.63Z" fill="#54ADFF"/>
<path d="M374.17 64.63H348.66V90.14H374.17V64.63Z" fill="#54ADFF"/>
<path opacity="0.2" d="M409.04 64.63H383.53V90.14H409.04V64.63Z" fill="#54ADFF"/>
<path opacity="0.4" d="M443.901 64.63H418.391V90.14H443.901V64.63Z" fill="#54ADFF"/>
<path d="M478.77 64.63H453.26V90.14H478.77V64.63Z" fill="#54ADFF"/>
<path opacity="0.2" d="M513.641 64.63H488.131V90.14H513.641V64.63Z" fill="#54ADFF"/>
<path opacity="0.4" d="M548.5 64.63H522.99V90.14H548.5V64.63Z" fill="#54ADFF"/>
<path opacity="0.2" d="M583.37 64.63H557.86V90.14H583.37V64.63Z" fill="#54ADFF"/>
<path d="M618.24 64.63H592.73V90.14H618.24V64.63Z" fill="#54ADFF"/>
<path opacity="0.2" d="M653.1 64.63H627.59V90.14H653.1V64.63Z" fill="#54ADFF"/>
<path opacity="0.7" d="M687.97 64.63H662.46V90.14H687.97V64.63Z" fill="#54ADFF"/>
<path opacity="0.7" d="M722.83 64.63H697.32V90.14H722.83V64.63Z" fill="#54ADFF"/>
<path opacity="0.4" d="M757.7 64.63H732.19V90.14H757.7V64.63Z" fill="#54ADFF"/>
<path opacity="0.2" d="M792.571 64.63H767.061V90.14H792.571V64.63Z" fill="#54ADFF"/>
<path d="M827.43 64.63H801.92V90.14H827.43V64.63Z" fill="#54ADFF"/>
<path d="M862.3 64.63H836.79V90.14H862.3V64.63Z" fill="#54ADFF"/>
<path d="M897.16 64.63H871.65V90.14H897.16V64.63Z" fill="#54ADFF"/>
<path opacity="0.2" d="M25.51 96.94H0V122.45H25.51V96.94Z" fill="#54ADFF"/>
<path opacity="0.2" d="M60.3801 96.94H34.8701V122.45H60.3801V96.94Z" fill="#54ADFF"/>
<path opacity="0.2" d="M95.2405 96.94H69.7305V122.45H95.2405V96.94Z" fill="#54ADFF"/>
<path opacity="0.2" d="M130.11 96.94H104.6V122.45H130.11V96.94Z" fill="#54ADFF"/>
<path d="M164.981 96.94H139.471V122.45H164.981V96.94Z" fill="#54ADFF"/>
<path opacity="0.7" d="M199.84 96.94H174.33V122.45H199.84V96.94Z" fill="#54ADFF"/>
<path opacity="0.7" d="M234.71 96.94H209.2V122.45H234.71V96.94Z" fill="#54ADFF"/>
<path opacity="0.2" d="M269.571 96.94H244.061V122.45H269.571V96.94Z" fill="#54ADFF"/>
<path opacity="0.2" d="M304.44 96.94H278.93V122.45H304.44V96.94Z" fill="#54ADFF"/>
<path opacity="0.4" d="M339.311 96.94H313.801V122.45H339.311V96.94Z" fill="#54ADFF"/>
<path opacity="0.4" d="M374.17 96.94H348.66V122.45H374.17V96.94Z" fill="#54ADFF"/>
<path d="M409.04 96.94H383.53V122.45H409.04V96.94Z" fill="#54ADFF"/>
<path opacity="0.2" d="M443.901 96.94H418.391V122.45H443.901V96.94Z" fill="#54ADFF"/>
<path opacity="0.4" d="M478.77 96.94H453.26V122.45H478.77V96.94Z" fill="#54ADFF"/>
<path opacity="0.4" d="M513.641 96.94H488.131V122.45H513.641V96.94Z" fill="#54ADFF"/>
<path opacity="0.4" d="M548.5 96.94H522.99V122.45H548.5V96.94Z" fill="#54ADFF"/>
<path opacity="0.4" d="M583.37 96.94H557.86V122.45H583.37V96.94Z" fill="#54ADFF"/>
<path opacity="0.2" d="M618.24 96.94H592.73V122.45H618.24V96.94Z" fill="#54ADFF"/>
<path opacity="0.2" d="M653.1 96.94H627.59V122.45H653.1V96.94Z" fill="#54ADFF"/>
<path opacity="0.2" d="M687.97 96.94H662.46V122.45H687.97V96.94Z" fill="#54ADFF"/>
<path opacity="0.2" d="M722.83 96.94H697.32V122.45H722.83V96.94Z" fill="#54ADFF"/>
<path opacity="0.7" d="M757.7 96.94H732.19V122.45H757.7V96.94Z" fill="#54ADFF"/>
<path opacity="0.7" d="M792.571 96.94H767.061V122.45H792.571V96.94Z" fill="#54ADFF"/>
<path opacity="0.4" d="M827.43 96.94H801.92V122.45H827.43V96.94Z" fill="#54ADFF"/>
<path opacity="0.2" d="M862.3 96.94H836.79V122.45H862.3V96.94Z" fill="#54ADFF"/>
<path d="M897.16 96.94H871.65V122.45H897.16V96.94Z" fill="#54ADFF"/>
<path opacity="0.2" d="M25.51 129.26H0V154.77H25.51V129.26Z" fill="#54ADFF"/>
<path opacity="0.2" d="M60.3801 129.26H34.8701V154.77H60.3801V129.26Z" fill="#54ADFF"/>
<path opacity="0.4" d="M95.2405 129.26H69.7305V154.77H95.2405V129.26Z" fill="#54ADFF"/>
<path opacity="0.2" d="M130.11 129.26H104.6V154.77H130.11V129.26Z" fill="#54ADFF"/>
<path opacity="0.2" d="M164.981 129.26H139.471V154.77H164.981V129.26Z" fill="#54ADFF"/>
<path opacity="0.7" d="M199.84 129.26H174.33V154.77H199.84V129.26Z" fill="#54ADFF"/>
<path opacity="0.7" d="M234.71 129.26H209.2V154.77H234.71V129.26Z" fill="#54ADFF"/>
<path opacity="0.2" d="M269.571 129.26H244.061V154.77H269.571V129.26Z" fill="#54ADFF"/>
<path opacity="0.2" d="M304.44 129.26H278.93V154.77H304.44V129.26Z" fill="#54ADFF"/>
<path opacity="0.4" d="M339.311 129.26H313.801V154.77H339.311V129.26Z" fill="#54ADFF"/>
<path d="M374.17 129.26H348.66V154.77H374.17V129.26Z" fill="#54ADFF"/>
<path opacity="0.2" d="M409.04 129.26H383.53V154.77H409.04V129.26Z" fill="#54ADFF"/>
<path d="M443.901 129.26H418.391V154.77H443.901V129.26Z" fill="#54ADFF"/>
<path d="M478.77 129.26H453.26V154.77H478.77V129.26Z" fill="#54ADFF"/>
<path d="M513.641 129.26H488.131V154.77H513.641V129.26Z" fill="#54ADFF"/>
<path opacity="0.2" d="M548.5 129.26H522.99V154.77H548.5V129.26Z" fill="#54ADFF"/>
<path d="M583.37 129.26H557.86V154.77H583.37V129.26Z" fill="#54ADFF"/>
<path opacity="0.2" d="M618.24 129.26H592.73V154.77H618.24V129.26Z" fill="#54ADFF"/>
<path opacity="0.2" d="M653.1 129.26H627.59V154.77H653.1V129.26Z" fill="#54ADFF"/>
<path opacity="0.2" d="M687.97 129.26H662.46V154.77H687.97V129.26Z" fill="#54ADFF"/>
<path opacity="0.2" d="M722.83 129.26H697.32V154.77H722.83V129.26Z" fill="#54ADFF"/>
<path opacity="0.2" d="M757.7 129.26H732.19V154.77H757.7V129.26Z" fill="#54ADFF"/>
<path opacity="0.7" d="M792.571 129.26H767.061V154.77H792.571V129.26Z" fill="#54ADFF"/>
<path opacity="0.2" d="M827.43 129.26H801.92V154.77H827.43V129.26Z" fill="#54ADFF"/>
<path opacity="0.2" d="M862.3 129.26H836.79V154.77H862.3V129.26Z" fill="#54ADFF"/>
<path d="M897.16 129.26H871.65V154.77H897.16V129.26Z" fill="#54ADFF"/>
<path opacity="0.2" d="M25.51 161.57H0V187.08H25.51V161.57Z" fill="#54ADFF"/>
<path opacity="0.2" d="M60.3801 161.57H34.8701V187.08H60.3801V161.57Z" fill="#54ADFF"/>
<path opacity="0.2" d="M95.2405 161.57H69.7305V187.08H95.2405V161.57Z" fill="#54ADFF"/>
<path opacity="0.4" d="M130.11 161.57H104.6V187.08H130.11V161.57Z" fill="#54ADFF"/>
<path opacity="0.2" d="M164.981 161.57H139.471V187.08H164.981V161.57Z" fill="#54ADFF"/>
<path opacity="0.2" d="M199.84 161.57H174.33V187.08H199.84V161.57Z" fill="#54ADFF"/>
<path opacity="0.7" d="M234.71 161.57H209.2V187.08H234.71V161.57Z" fill="#54ADFF"/>
<path opacity="0.2" d="M269.571 161.57H244.061V187.08H269.571V161.57Z" fill="#54ADFF"/>
<path opacity="0.2" d="M304.44 161.57H278.93V187.08H304.44V161.57Z" fill="#54ADFF"/>
<path opacity="0.2" d="M339.311 161.57H313.801V187.08H339.311V161.57Z" fill="#54ADFF"/>
<path d="M374.17 161.57H348.66V187.08H374.17V161.57Z" fill="#54ADFF"/>
<path opacity="0.2" d="M409.04 161.57H383.53V187.08H409.04V161.57Z" fill="#54ADFF"/>
<path d="M443.901 161.57H418.391V187.08H443.901V161.57Z" fill="#54ADFF"/>
<path d="M478.77 161.57H453.26V187.08H478.77V161.57Z" fill="#54ADFF"/>
<path opacity="0.2" d="M513.641 161.57H488.131V187.08H513.641V161.57Z" fill="#54ADFF"/>
<path opacity="0.2" d="M548.5 161.57H522.99V187.08H548.5V161.57Z" fill="#54ADFF"/>
<path opacity="0.2" d="M583.37 161.57H557.86V187.08H583.37V161.57Z" fill="#54ADFF"/>
<path opacity="0.2" d="M618.24 161.57H592.73V187.08H618.24V161.57Z" fill="#54ADFF"/>
<path opacity="0.2" d="M653.1 161.57H627.59V187.08H653.1V161.57Z" fill="#54ADFF"/>
<path opacity="0.2" d="M687.97 161.57H662.46V187.08H687.97V161.57Z" fill="#54ADFF"/>
<path opacity="0.2" d="M722.83 161.57H697.32V187.08H722.83V161.57Z" fill="#54ADFF"/>
<path opacity="0.2" d="M757.7 161.57H732.19V187.08H757.7V161.57Z" fill="#54ADFF"/>
<path opacity="0.2" d="M792.571 161.57H767.061V187.08H792.571V161.57Z" fill="#54ADFF"/>
<path opacity="0.2" d="M827.43 161.57H801.92V187.08H827.43V161.57Z" fill="#54ADFF"/>
<path opacity="0.4" d="M862.3 161.57H836.79V187.08H862.3V161.57Z" fill="#54ADFF"/>
<path d="M897.16 161.57H871.65V187.08H897.16V161.57Z" fill="#54ADFF"/>
<path opacity="0.7" d="M25.51 193.89H0V219.4H25.51V193.89Z" fill="#54ADFF"/>
<path opacity="0.7" d="M60.3801 193.89H34.8701V219.4H60.3801V193.89Z" fill="#54ADFF"/>
<path opacity="0.7" d="M95.2405 193.89H69.7305V219.4H95.2405V193.89Z" fill="#54ADFF"/>
<path opacity="0.7" d="M130.11 193.89H104.6V219.4H130.11V193.89Z" fill="#54ADFF"/>
<path opacity="0.7" d="M164.981 193.89H139.471V219.4H164.981V193.89Z" fill="#54ADFF"/>
<path opacity="0.2" d="M199.84 193.89H174.33V219.4H199.84V193.89Z" fill="#54ADFF"/>
<path opacity="0.2" d="M234.71 193.89H209.2V219.4H234.71V193.89Z" fill="#54ADFF"/>
<path opacity="0.2" d="M269.571 193.89H244.061V219.4H269.571V193.89Z" fill="#54ADFF"/>
<path opacity="0.2" d="M304.44 193.89H278.93V219.4H304.44V193.89Z" fill="#54ADFF"/>
<path opacity="0.2" d="M339.311 193.89H313.801V219.4H339.311V193.89Z" fill="#54ADFF"/>
<path opacity="0.2" d="M374.17 193.89H348.66V219.4H374.17V193.89Z" fill="#54ADFF"/>
<path d="M409.04 193.89H383.53V219.4H409.04V193.89Z" fill="#54ADFF"/>
<path opacity="0.2" d="M443.901 193.89H418.391V219.4H443.901V193.89Z" fill="#54ADFF"/>
<path opacity="0.2" d="M478.77 193.89H453.26V219.4H478.77V193.89Z" fill="#54ADFF"/>
<path opacity="0.2" d="M513.641 193.89H488.131V219.4H513.641V193.89Z" fill="#54ADFF"/>
<path d="M548.5 193.89H522.99V219.4H548.5V193.89Z" fill="#54ADFF"/>
<path opacity="0.2" d="M583.37 193.89H557.86V219.4H583.37V193.89Z" fill="#54ADFF"/>
<path opacity="0.2" d="M618.24 193.89H592.73V219.4H618.24V193.89Z" fill="#54ADFF"/>
<path opacity="0.2" d="M653.1 193.89H627.59V219.4H653.1V193.89Z" fill="#54ADFF"/>
<path opacity="0.2" d="M687.97 193.89H662.46V219.4H687.97V193.89Z" fill="#54ADFF"/>
<path opacity="0.2" d="M722.83 193.89H697.32V219.4H722.83V193.89Z" fill="#54ADFF"/>
<path opacity="0.2" d="M757.7 193.89H732.19V219.4H757.7V193.89Z" fill="#54ADFF"/>
<path opacity="0.2" d="M792.571 193.89H767.061V219.4H792.571V193.89Z" fill="#54ADFF"/>
<path opacity="0.2" d="M827.43 193.89H801.92V219.4H827.43V193.89Z" fill="#54ADFF"/>
<path opacity="0.2" d="M862.3 193.89H836.79V219.4H862.3V193.89Z" fill="#54ADFF"/>
<path d="M897.16 193.89H871.65V219.4H897.16V193.89Z" fill="#54ADFF"/>
<path d="M628.97 287.74C648.228 287.74 663.84 272.128 663.84 252.87C663.84 233.612 648.228 218 628.97 218C609.711 218 594.1 233.612 594.1 252.87C594.1 272.128 609.711 287.74 628.97 287.74Z" fill="#767D9F"/>
<path d="M627.16 208.51C630.64 223.697 633.593 238.997 636.02 254.41C636.75 258.99 637.4 263.82 635.74 268.15C634.35 271.76 631.52 274.58 629.3 277.74C627.08 280.9 625.4 284.95 626.75 288.57C628.1 292.19 632.04 294.17 635.8 295.19C646.56 298.09 658.03 295.98 668.74 292.84C673.589 291.592 678.238 289.666 682.55 287.12C687.09 284.24 690.81 280.24 694.23 276.12C709.84 257.19 720.06 234.47 729.68 211.89C723.498 212.453 717.272 211.536 711.515 209.217C705.757 206.897 700.635 203.241 696.57 198.55C692.63 193.92 689.74 187.47 691.96 181.81C685.45 185.38 677.72 185.62 670.71 188.06C666.363 189.72 662.178 191.779 658.21 194.21C653.423 196.977 648.663 199.797 643.93 202.67C638.52 205.93 633.45 208.83 627.16 208.51Z" fill="#E8C1B1"/>
<path d="M700.091 234.69C693.981 246.58 686.031 258.01 674.681 265.09C663.331 272.17 648.051 274.09 636.681 267.09C631.081 263.67 626.841 258.47 621.951 254.09C617.061 249.71 610.951 245.96 604.381 246.53C597.141 247.16 591.471 252.81 586.621 258.22C579.261 266.44 572.151 275.01 566.941 284.74C556.941 303.44 554.571 325.3 555.011 346.5C555.451 367.7 558.521 388.79 558.591 409.99C558.691 436.07 554.271 461.94 549.801 487.63C590.901 482.57 632.051 493.63 673.241 497.82C699.601 500.53 726.161 500.47 752.661 500.4C757.321 500.4 762.281 500.28 766.161 497.7C768.532 495.97 770.45 493.692 771.751 491.06C775.411 484.31 776.881 476.61 777.901 469C780.491 449.78 780.571 430.32 780.641 410.92C780.821 363.92 780.991 316.75 775.021 270.12C773.551 258.65 771.671 247.12 767.271 236.39C762.871 225.66 755.691 215.79 745.651 210.04C739.201 206.34 724.251 199.9 716.651 203.63C708.121 207.79 704.181 226.73 700.091 234.69Z" fill="#3780C3"/>
<path d="M703.13 367.41C701.58 338.41 695.27 307.46 708.7 281.72C712 275.4 700.16 267.51 703.82 261.39C708.287 253.928 711.674 245.872 713.88 237.46C714.64 234.57 715.25 231.51 714.53 228.61C713.2 223.32 707.97 220.17 703.53 216.95C698.63 213.39 696.11 202.54 694.53 196.67C692.95 190.8 707.1 197.87 712.79 195.78C720.69 192.89 730.73 194.71 738.61 197.64C743.01 199.26 747.79 199.4 752.48 199.52C761.59 199.76 770.73 199.99 779.77 198.87C783.83 198.36 787.9 197.59 791.98 197.82C802.39 198.41 811.44 205.53 817.6 213.95C823.76 222.37 827.68 232.18 832.73 241.3C836.94 248.9 841.96 256.08 845.55 263.99C848.73 270.99 850.74 278.51 852.73 285.99L857.86 305.18C858.758 307.925 859.184 310.803 859.12 313.69C858.86 316.76 857.5 319.62 856.12 322.35C850.902 332.469 844.645 342.017 837.45 350.84C826.66 364.07 813.56 376 807.15 391.84C804.65 398.01 803.26 404.57 801.99 411.11C796.87 437.267 793.231 463.693 791.09 490.26C779.406 484.853 767.158 480.758 754.57 478.05C748.296 476.708 741.953 475.706 735.57 475.05C729.98 474.47 722.77 475.57 717.45 474.05C708.55 471.52 707.57 456.47 706.22 448.59C704.06 436.04 703.63 423.27 703.55 410.59C703.45 396.17 703.9 381.78 703.13 367.41Z" fill="#CCCCCC"/>
<path d="M507.68 313.18C511.89 337.18 516.53 361.25 525.68 383.8C525.45 384.02 525.22 384.22 524.99 384.42C524.18 385.11 523.34 385.76 522.46 386.42C520.41 387.86 518.16 389.08 516.46 390.96C515.817 391.679 515.309 392.51 514.96 393.41C514.646 394.113 514.484 394.875 514.484 395.645C514.484 396.415 514.646 397.177 514.96 397.88C510.19 399.99 504.65 399.34 499.3 399.14C494.69 398.97 490.22 399.14 486.52 401.67C481.38 405.21 479.83 412.01 479 418.19C478.694 420.443 478.43 422.7 478.21 424.96C477.997 427.06 477.824 429.167 477.69 431.28C477.237 438.271 477.174 445.282 477.5 452.28C477.554 453.56 477.624 454.84 477.71 456.12C461.37 455.73 446.48 447.21 432.39 438.93C429.17 437.04 425.85 435.05 423.76 431.93C421.835 428.866 421.019 425.233 421.45 421.64C421.45 421.13 421.54 420.64 421.61 420.12C422.058 417.152 422.826 414.242 423.9 411.44C428.309 399.504 434.807 388.448 443.09 378.79C446.67 374.61 450.7 370.52 452.37 365.27C453.1 362.98 453.37 360.55 454.11 358.27C457.43 348.39 469.41 343.72 473.51 334.13C474.51 331.84 474.97 329.33 476.21 327.13C477.327 325.302 478.767 323.692 480.46 322.38C481.19 321.77 481.95 321.18 482.7 320.59C489.727 315.083 496.497 309.267 503.01 303.14C504.224 302 505.424 300.847 506.61 299.68C506.452 304.206 506.811 308.735 507.68 313.18V313.18Z" fill="#CCCCCC"/>
<path d="M608.45 242.2C607.01 243.72 605.45 245.15 603.92 246.57L603.51 246.94L601.89 248.44C598.95 250.978 596.405 253.94 594.34 257.23L594.17 257.51C589.07 266.64 590.96 277.88 592.38 288.25C594.141 301.173 594.934 314.209 594.75 327.25C594.49 345.25 592.37 363.13 592.33 381.11C592.33 385.19 592.42 389.26 592.6 393.34C592.89 399.97 593.39 406.59 593.99 413.21C594.64 420.47 595.42 427.72 596.15 434.97C596.73 440.58 597.28 446.18 597.74 451.78C597.97 454.68 598.19 457.57 598.37 460.47C598.58 463.87 598.75 467.28 598.85 470.68C598.92 472.84 598.96 474.99 598.96 477.15C598.96 478.38 598.96 479.6 598.96 480.82C598.96 483.16 598.897 485.493 598.77 487.82C598.637 490.813 598.433 493.813 598.16 496.82C597.85 500.09 597.3 503.66 595 505.96C594.86 506.1 594.71 506.23 594.56 506.36L591.32 505.96C568.985 503.286 546.436 502.884 524.02 504.76C524.51 501.38 524.96 498.01 525.4 494.62C525.6 493.02 525.8 491.41 525.99 489.8C526.21 487.96 526.42 486.12 526.62 484.28C526.85 482.28 527.06 480.28 527.26 478.28C527.78 473.127 528.237 467.97 528.63 462.81C529.21 455.283 529.65 447.743 529.95 440.19C530.097 436.583 530.21 432.973 530.29 429.36C530.403 424.88 530.457 420.397 530.45 415.91C530.45 411.55 530.413 407.183 530.34 402.81C530.34 401.37 530.28 399.93 530.16 398.5C530.074 397.212 529.897 395.933 529.63 394.67C528.888 391.759 527.884 388.921 526.63 386.19C526.41 385.67 526.2 385.19 525.99 384.64C525.87 384.37 525.76 384.09 525.65 383.82C531.41 378.69 535.51 371.82 539.45 365.06C545.84 354.17 552.38 342.8 553.45 330.22C554.52 317.64 548.27 303.51 536.25 299.67C532.98 298.67 529.52 298.39 526.15 297.8C522.97 297.24 516.34 295.97 512.66 293.69C510.66 295.743 508.66 297.76 506.66 299.74C506.781 296.719 507.52 293.755 508.83 291.03L510.25 291.1C510.134 290.78 510.08 290.44 510.09 290.1C510.09 289.03 510.83 287.82 512.41 286.48C517.12 282.48 524.53 281.59 527.5 276.18C528.74 273.93 528.95 271.25 529.95 268.89C532.82 262.16 541.06 259.68 546.02 254.3C550.98 248.92 552.22 241.3 556.23 235.3C559.226 230.918 563.38 227.456 568.23 225.3C568.63 225.11 569.04 224.92 569.45 224.75C577.75 221.2 587.61 220.39 596.21 220.41C599.55 220.41 608.21 220.51 612.45 222.2C613.138 222.446 613.768 222.83 614.3 223.33C618.82 228.25 611.79 238.64 608.45 242.2Z" fill="#CCCCCC"/>
<path d="M509.17 290.33C516.895 288.004 525.005 287.237 533.029 288.073C541.052 288.909 548.83 291.332 555.91 295.2C563.11 299.2 569.57 304.78 573.53 311.98C579.48 322.78 579.22 335.8 578.8 348.13C578.59 354.3 578.32 360.69 575.6 366.23C572.45 372.64 566.51 377.04 560.45 380.64C556.653 383.062 552.494 384.861 548.13 385.97C541.41 387.43 534.43 386.19 527.66 384.97C520.3 383.61 512.4 381.97 507.29 376.49C504.29 373.31 502.65 369.18 501.03 365.14C498.703 359.307 496.37 353.48 494.03 347.66C489.98 337.55 488.61 329.14 493.96 319.29C496.39 314.8 499.36 310.6 501.76 306.08C502.96 303.78 507.26 290.92 509.17 290.33Z" fill="#CCCCCC"/>
<path d="M929.45 463.2V493.1C908.937 501.621 886.933 505.973 864.72 505.9H595.031C594.891 506.04 594.74 506.17 594.59 506.3L591.35 505.9H111.62C71.3705 505.9 34.0705 495.04 3.48047 476.54V430.89L234.2 404.26H234.38L368.74 415.64L403.51 418.64L421.57 420.17L458.95 423.34L478.18 424.97L506.18 427.35L510.12 427.68L530.3 429.39L557.68 431.64L596.18 434.9L660.36 440.35L705.51 444.18L779.651 450.47L793.75 451.66L795.271 451.79L796.59 451.9L815.21 453.48L835.651 455.22L838.021 455.42L929.45 463.2Z" fill="#446889"/>
<path d="M658.45 462.1L369.31 412.75L358.1 469.44L490.64 485.31L531.45 490.42L643.71 468.31L658.45 462.1Z" fill="#9C9CA1"/>
<path d="M508.78 487.58L653.64 460.35C654.365 460.211 655.111 460.235 655.826 460.418C656.541 460.602 657.206 460.942 657.774 461.413C658.341 461.885 658.798 462.476 659.11 463.144C659.423 463.813 659.583 464.542 659.58 465.28V465.28C659.583 466.451 659.176 467.585 658.428 468.486C657.681 469.387 656.641 469.997 655.49 470.21L514.02 496.7L508.78 487.58Z" fill="#9C9CA1"/>
<path d="M571.621 401.95C576.131 401.53 580.701 400.82 584.761 398.82C589.761 396.33 593.651 392.04 598.281 388.88C608.461 381.88 622.081 380.94 633.751 384.96C645.421 388.98 655.161 397.59 661.981 407.87C666.511 414.72 669.911 423.46 666.711 431.02C665.613 433.331 664.229 435.495 662.591 437.46L654.251 448.36C652.666 450.651 650.76 452.702 648.591 454.45C645.471 456.72 641.591 457.65 637.771 458.21C627.621 459.69 617.291 458.85 607.061 459.53C589.491 460.7 572.331 466.36 554.721 466.17C544.601 466.06 534.611 464.02 524.721 461.98L480.951 452.98C473.331 451.42 464.721 449.14 461.131 442.23C459.521 439.12 459.221 435.52 459.031 432.02C458.511 422.38 459.031 411.66 465.711 404.71C471.991 398.19 481.921 396.13 489.421 391.31C498.601 385.4 501.631 387.31 511.311 391.75C530.196 400.303 550.974 403.817 571.621 401.95V401.95Z" fill="#D1A491"/>
<path d="M747.391 388.24C735.111 392.99 722.761 397.76 709.901 400.59C688.341 405.34 665.781 404.59 644.391 410.02C633.091 412.9 621.861 417.54 610.251 416.6C605.061 416.18 600.051 414.6 595.001 413.4C566.631 406.4 534.381 408.67 511.341 426.67C503.461 432.82 497.011 440.49 491.161 448.67C489.909 450.437 489.063 452.458 488.683 454.59C488.303 456.722 488.399 458.911 488.964 461.002C489.528 463.092 490.548 465.032 491.949 466.683C493.351 468.333 495.099 469.654 497.071 470.55C506.031 474.671 515.629 477.231 525.451 478.12C538.581 479.28 551.771 477.42 564.831 475.56C584.211 472.81 603.601 470.05 622.931 466.96C629.871 465.85 636.811 464.7 643.791 463.82C694.021 457.47 745.161 465.19 795.521 459.89C800.611 459.35 805.791 458.65 810.421 456.48C822.141 450.98 827.941 436.48 825.521 423.74C823.101 411 813.761 400.41 802.521 393.91C793.101 388.44 782.941 386.23 772.451 383.91C762.711 381.64 756.771 384.64 747.391 388.24Z" fill="#E8C1B1"/>
<path opacity="0.1" d="M855.12 312.08C860.66 319.34 861.84 329.08 861.24 338.17C860.64 347.26 858.48 356.25 858.16 365.38C857.72 377.9 860.74 390.38 860.23 402.86C859.87 411.59 857.8 420.15 855.35 428.53C852.46 438.42 848.28 449.05 839.15 453.8C827.03 460.11 801.61 456.56 788.86 461.5C790.02 454.27 801.14 443.8 802.3 436.57C803.1 431.57 803.91 426.43 803.05 421.42C801.95 415.03 798.2 409.36 793.75 404.64C786.67 397.13 777.43 391.48 767.28 389.64C757.13 387.8 732.28 389.31 724.16 395.72C723.16 389.1 741.76 382.72 748.3 381.29C751.56 380.56 755.3 380.97 757.91 378.9C762.91 374.98 759.28 367.17 759.52 360.9C759.71 355.9 762.63 351.32 763.22 346.32C764.22 338.32 759 330.17 761.05 322.32C761.81 319.42 763.5 316.87 764.67 314.11C768.23 305.66 766.67 296.02 764.77 287.04C763.59 281.4 762.44 275.04 765.58 270.23C768.49 265.74 776.75 281.73 782.04 280.99C799.51 278.54 815.32 265.59 829.43 276.19C836.62 281.59 837.56 287.19 840.43 294.9C843.22 302.24 850.45 306 855.12 312.08Z" fill="black"/>
<path d="M858.12 312.08C863.66 319.34 864.84 329.08 864.24 338.17C863.64 347.26 861.48 356.25 861.16 365.38C860.72 377.9 863.74 390.38 863.23 402.86C862.87 411.59 860.8 420.15 858.35 428.53C855.46 438.42 851.28 449.05 842.15 453.8C830.03 460.11 804.61 456.56 791.86 461.5C793.02 454.27 804.14 443.8 805.3 436.57C806.1 431.57 806.91 426.43 806.05 421.42C804.95 415.03 801.2 409.36 796.75 404.64C789.67 397.13 780.43 391.48 770.28 389.64C760.13 387.8 735.28 389.31 727.16 395.72C726.16 389.1 744.76 382.72 751.3 381.29C754.56 380.56 758.3 380.97 760.91 378.9C765.91 374.98 762.28 367.17 762.52 360.9C762.71 355.9 765.63 351.32 766.22 346.32C767.22 338.32 762 330.17 764.05 322.32C764.81 319.42 766.5 316.87 767.67 314.11C771.23 305.66 769.67 296.02 767.77 287.04C766.59 281.4 765.44 275.04 768.58 270.23C771.49 265.74 777.18 264.04 782.47 263.29C800.182 260.894 818.128 265.524 832.47 276.19C839.66 281.59 840.6 287.19 843.47 294.9C846.22 302.24 853.45 306 858.12 312.08Z" fill="#CCCCCC"/>
<path d="M196.45 264.7L250.82 465.64C251.487 468.102 252.889 470.302 254.838 471.948C256.787 473.593 259.191 474.605 261.73 474.85L506.45 498.36C508.445 498.552 510.456 498.264 512.316 497.519C514.176 496.774 515.831 495.594 517.141 494.078C518.451 492.562 519.379 490.754 519.847 488.806C520.315 486.858 520.309 484.826 519.83 482.88L460.29 240.5C459.582 237.619 457.875 235.082 455.473 233.341C453.071 231.6 450.129 230.767 447.17 230.99L207.58 248.91C205.741 249.053 203.955 249.6 202.352 250.512C200.748 251.425 199.365 252.68 198.302 254.188C197.239 255.696 196.522 257.42 196.202 259.237C195.882 261.054 195.967 262.919 196.45 264.7V264.7Z" fill="#B3B3BE"/>
<path d="M681.56 303.91C696.417 303.91 708.46 291.71 708.46 276.66C708.46 261.61 696.417 249.41 681.56 249.41C666.704 249.41 654.66 261.61 654.66 276.66C654.66 291.71 666.704 303.91 681.56 303.91Z" fill="white"/>
<path d="M703.65 226.95C703.65 226.95 709.32 243.81 692.59 250.9L690.45 254.64L700.93 264.98C700.93 264.98 713.85 241.41 712.45 233.04C712.45 233.04 710.45 224.54 703.65 226.95Z" fill="white"/>
<path d="M684.65 303.91C698.976 303.91 710.59 292.296 710.59 277.97C710.59 263.644 698.976 252.03 684.65 252.03C670.324 252.03 658.71 263.644 658.71 277.97C658.71 292.296 670.324 303.91 684.65 303.91Z" fill="#54ADFF"/>
<path d="M712.581 236.87L708.461 230.07L702.461 229.22C703.741 206.83 697.931 200.16 697.931 200.16L696.581 200.03L690.701 199.46L679.641 187.98V184.72C695.181 186.57 703.771 193.95 708.411 202.6C716.611 217.78 712.581 236.87 712.581 236.87Z" fill="#54ADFF"/>
<path opacity="0.1" d="M696.63 195.91V200.03L690.75 199.46L679.69 187.98C679.69 187.98 696.8 191.81 696.63 195.91Z" fill="black" stroke="#4C4981" stroke-miterlimit="10"/>
<path opacity="0.1" d="M712.58 236.87L708.46 230.07V202.64C716.61 217.78 712.58 236.87 712.58 236.87Z" fill="black" stroke="#4C4981" stroke-miterlimit="10"/>
<path d="M636.717 288.633C643.619 284.648 643.322 271.213 636.054 258.624C628.786 246.036 617.299 239.061 610.397 243.046C603.495 247.03 603.792 260.466 611.06 273.054C618.328 285.643 629.815 292.618 636.717 288.633Z" fill="white"/>
<path d="M627.45 263.64C634.72 276.23 643.64 284.64 636.74 288.64C629.84 292.64 609.74 290.64 602.47 278.04C595.2 265.44 601.8 248.04 608.7 244.04C615.6 240.04 620.17 251.02 627.45 263.64Z" fill="#54ADFF"/>
<path opacity="0.1" d="M692.18 172.94C692.18 213.17 664.65 251.94 624.42 251.94C605.099 251.94 586.57 244.265 572.908 230.603C559.246 216.941 551.57 198.411 551.57 179.09C551.57 159.769 559.246 141.239 572.908 127.577C586.57 113.915 605.099 106.24 624.42 106.24C664.65 106.28 692.18 132.7 692.18 172.94Z" fill="black"/>
<path d="M624.42 249.98C664.654 249.98 697.27 217.364 697.27 177.13C697.27 136.896 664.654 104.28 624.42 104.28C584.186 104.28 551.57 136.896 551.57 177.13C551.57 217.364 584.186 249.98 624.42 249.98Z" fill="#E8C1B1"/>
<path d="M618.02 144.85C626.69 148.04 631.82 157 639.6 161.99C650.6 168.99 664.92 167.18 677.48 163.72C684.48 161.81 691.8 159.48 698.69 161.6C699.703 162.049 700.821 162.208 701.92 162.06C703.42 161.63 704.16 159.97 704.65 158.49C713.17 133.09 709.34 104.32 696.48 80.82C693.16 74.76 689.18 68.9 683.7 64.69C679.38 61.38 674.3 59.21 669.18 57.36C659.823 53.9996 650.145 51.6103 640.3 50.23C638.561 49.9141 636.785 49.8568 635.03 50.06C632.62 50.45 630.46 51.75 628.31 52.91C619.101 57.8462 608.89 60.6197 598.45 61.02C584.45 61.55 568.45 58.25 557.66 67.23C544.66 78 547.9 99.01 539.47 113.63C533.89 123.3 523.13 130.32 521.36 141.33C520.899 144.695 521.113 148.119 521.99 151.4C526.11 168.34 542.51 181.46 559.99 181.77C562.674 181.975 565.362 181.424 567.75 180.18C569.314 179.113 570.695 177.799 571.84 176.29C583.29 162.73 596.39 136.89 618.02 144.85Z" fill="#444053"/>
<path opacity="0.1" d="M704.65 151.12C704.16 152.6 703.42 154.26 701.92 154.69C700.822 154.838 699.704 154.679 698.69 154.23C691.8 152.11 684.44 154.44 677.49 156.35C664.92 159.81 650.57 161.66 639.61 154.62C631.82 149.62 626.7 140.62 618.02 137.48C596.39 129.48 583.29 155.36 571.81 168.92C570.666 170.429 569.285 171.743 567.72 172.81C565.333 174.054 562.645 174.605 559.96 174.4C542.54 174.09 526.13 160.97 521.96 144.03C521.73 143.03 521.53 142.03 521.38 141.03C521.38 141.12 521.38 141.2 521.33 141.29C520.869 144.655 521.084 148.079 521.96 151.36C526.08 168.3 542.49 181.42 559.96 181.73C562.645 181.935 565.333 181.384 567.72 180.14C569.285 179.073 570.666 177.759 571.81 176.25C583.29 162.69 596.39 136.85 618.02 144.81C626.7 148 631.82 156.96 639.61 161.95C650.61 168.95 664.92 167.14 677.49 163.68C684.49 161.77 691.8 159.44 698.69 161.56C699.704 162.009 700.822 162.168 701.92 162.02C703.42 161.59 704.16 159.93 704.65 158.45C708.087 148.057 709.605 137.126 709.13 126.19C708.836 134.671 707.327 143.067 704.65 151.12V151.12Z" fill="black"/>
</svg>
